<?xml version="1.0" encoding="UTF-8"?>
<svg id="Layer_1" xmlns="http://www.w3.org/2000/svg" xmlns:xlink="http://www.w3.org/1999/xlink" viewBox="0 0 1389.17 921.42">
  <defs>
    <style>
      .cls-1 {
        fill: #333;
        isolation: isolate;
        opacity: .56;
      }
    </style>
  </defs>
  <image width="845" height="848" transform="translate(0 73.42)" xlink:href="../../../../portfolio_site/portfolio/public/portrait.jpg"/>
  <text/>
  <path class="cls-1" d="M212.92.03c8.17.86,16.37.1,24.55.37,5.41.18,10.84-.13,16.26-.12,16.72.05,33.43.18,50.15.22,18.37.05,36.75.03,55.12.04h54.12c18.37,0,36.75.02,55.12.03,13.61,0,27.23,0,40.84.01,23.13.01,46.27.04,69.4.05,13.28,0,26.56.02,39.85-.01,8.74-.02,17.48-.1,26.22-.16l1.81,1.95c-.19.15-.38.31-.56.46-3.38,2.48-6.4,5.34-9.14,8.5-1.59,1.54-3.19,3.07-4.78,4.61,1.73,3.14,4.4,5.43,6.99,7.79,1.12,1.19,2.65,2.07,2.95,3.88-.24.07-.43,0-.6-.15-.07-.06-.2-.06-.3-.09,2.65,2.02.14,2.94-.93,4.1-.9.97-1.92,1.82-2.9,2.73-2.35,2.04-4.81,3.92-7.03,6.08-1.32,1.28-1.45,2.31-.07,3.59,3.18,2.95,5.09,6.98,8.33,9.88,1.38,1.23.95,2.13-.25,3.23-3.19,2.91-6.5,5.66-9.9,8.31-3.01,2.36-2.94,2.38-.82,5.48,2.26,3.32,5.18,6.06,7.93,8.92,1.44,1.5,1.33,2.38-.18,3.72-3.56,3.15-7.5,5.85-10.91,9.17-1.23,1.2-2.18,2.3-.63,3.88,3.3,3.54,6.6,7.08,9.9,10.61.67,2.26-1.01,2.16-2.37,2.28-1.72.15-3.48-.41-5.16.32h-43.47c-23.01,0-46.02-.03-69.04-.04h-40.49c-22.9,0-45.8-.03-68.7-.03h-54.1c-18.59,0-37.17-.04-55.76-.05-13.83-.01-27.66-.03-41.49-.02-16.59.02-33.19.08-49.78.07-1.61,0-3.79.54-3.76-2.31,3.38-2.48,6.4-5.34,9.14-8.5,1.59-1.54,3.19-3.07,4.78-4.61-1.73-3.14-4.4-5.43-6.99-7.79-1.12-1.19-2.65-2.07-2.95-3.88.24-.07.43,0,.6.15.07.06.2.06.3.09-2.64-2.02-.15-2.94.93-4.1.9-.97,1.92-1.82,2.9-2.73,2.34-2.03,4.8-3.91,7.03-6.08,1.31-1.27,1.46-2.3.08-3.59-3.18-2.94-5.09-6.98-8.33-9.87-1.36-1.22-.99-2.12.23-3.23,3.19-2.91,6.5-5.65,9.9-8.31,3.02-2.36,2.96-2.4.85-5.47-2.33-3.41-5.36-6.18-8.14-9.18-1.17-1.26-1.19-2.05.11-3.24,3.59-3.29,7.66-6,11.14-9.4,1.21-1.19,2.23-2.27.69-3.88-3.57-3.59-6.67-7.65-10.57-10.93l-.57-.51,2.43-2.27.02.03Z"/>
</svg>